<?xml version="1.0" encoding="UTF-8"?>
<svg width="18px" height="16px" viewBox="0 0 18 16" version="1.1" xmlns="http://www.w3.org/2000/svg" xmlns:xlink="http://www.w3.org/1999/xlink">
    <!-- Generator: Sketch 63.1 (92452) - https://sketch.com -->
    <title>donut-favicon copy</title>
    <desc>Created with Sketch.</desc>
    <g id="Welcome" stroke="none" stroke-width="1" fill="none" fill-rule="evenodd">
        <g id="sandbox" transform="translate(-1168.000000, -1748.000000)" stroke="#039DE7">
            <g id="donut-favicon-copy" transform="translate(1169.000000, 1749.000000)">
                <path d="M11.6258642,12.1630143 C14.2218802,11.1002849 16,8.93199281 16,6.42990654 C16,2.87876722 12.418278,0 8,0 C3.581722,0 0,2.87876722 0,6.42990654 C0,9.98104587 3.581722,12.8598131 8,12.8598131 C8.73154398,12.8598131 9.44015449,12.7808941 10.1133712,12.6330711" id="outer-donut"></path>
                <g id="donut-hole" transform="translate(5.532710, 2.990654)">
                    <path d="M2.49968847,3.73831776 C3.59944054,3.73831776 4.82990654,3.13539162 4.82990654,2.54885302 C4.82990654,1.96231441 3.59944054,1.61427358 2.49968847,1.61427358 C1.39993641,1.61427358 0.33894081,1.96231441 0.33894081,2.54885302 C0.33894081,3.13539162 1.39993641,3.73831776 2.49968847,3.73831776 Z" id="Oval"></path>
                    <ellipse id="Oval" cx="2.54205607" cy="1.86915888" rx="2.54205607" ry="1.86915888"></ellipse>
                </g>
                <path d="M0,6.98373139 C0.510638298,8.34244837 1.87234043,7.8329295 2.80851064,8.51228799 C3.74468085,9.19164648 3.80499069,10.2437177 4.68085106,10.5503634 C5.55671144,10.8570092 6.51342052,10.0215199 7.82978723,10.1257644 C9.14615395,10.2300089 9.61702128,10.2106842 10.0425532,10.9749625 C10.4680851,11.7392408 9.61702128,13.6074766 10.893617,13.6074766 C12.1702128,13.6074766 11.2131568,11.2602819 11.6595745,10.5503634 C12.1059921,9.840445 12.5515163,10.4800754 13.8723404,9.44640591 C14.2719178,9.13369892 14.6362153,8.77636985 14.965233,8.37441868 C15.2292592,8.05186577 15.5741815,7.50338353 16,6.72897196" id="frosting"></path>
                <g id="sprinkles" transform="translate(2.345794, 1.046729)" stroke-linecap="round">
                    <line x1="0.654205607" y1="4.95327103" x2="1.52495565" y2="6.2010282" id="Line-2"></line>
                    <line x1="7.07503577" y1="0.505865977" x2="8.72957662" y2="0.892076665" id="Line-2-Copy"></line>
                    <line x1="9.02971875" y1="2.1920859" x2="10.3444466" y2="2.96794107" id="Line-2-Copy-7"></line>
                    <line x1="3.65420561" y1="7.61631558" x2="5.03022992" y2="6.95327103" id="Line-2-Copy-6"></line>
                    <line x1="10.3894982" y1="5.93670232" x2="10.7765459" y2="4.4684828" id="Line-2-Copy-2"></line>
                    <line x1="0.654205607" y1="2.95327103" x2="2.07224471" y2="3.52256363" id="Line-2-Copy-3"></line>
                    <line x1="7.65420561" y1="6.95327103" x2="9.14329237" y2="7.30086065" id="Line-2-Copy-4"></line>
                    <line x1="2.65420561" y1="1.43317763" x2="4.10545568" y2="0.953271028" id="Line-2-Copy-5"></line>
                </g>
            </g>
        </g>
    </g>
</svg>