<?xml version="1.0" encoding="UTF-8"?>
<svg width="50px" height="50px" viewBox="0 0 50 50" version="1.1" xmlns="http://www.w3.org/2000/svg" xmlns:xlink="http://www.w3.org/1999/xlink">
    <!-- Generator: Sketch 63.1 (92452) - https://sketch.com -->
    <title>Facebook</title>
    <desc>Created with Sketch.</desc>
    <g id="Welcome" stroke="none" stroke-width="1" fill="none" fill-rule="evenodd">
        <g id="sandbox" transform="translate(-474.000000, -862.000000)" fill-rule="nonzero">
            <g id="Facebook" transform="translate(474.000000, 862.000000)">
                <rect id="back-15" fill="#333333" x="0" y="0" width="50" height="50"></rect>
                <path d="M32.2914104,26.7475586 L33.1394267,21.3592188 L27.8343343,21.3592188 L27.8343343,17.8625195 C27.8343343,16.3883594 28.5753866,14.9514648 30.9515639,14.9514648 L33.3636364,14.9514648 L33.3636364,10.3641016 C33.3636364,10.3641016 31.174571,10 29.0818274,10 C24.7124751,10 21.8567934,12.5805859 21.8567934,17.2524414 L21.8567934,21.3592188 L17,21.3592188 L17,26.7475586 L21.8567934,26.7475586 L21.8567934,39.7735352 C22.8306533,39.9224805 23.8288041,40 24.8455939,40 C25.8623837,40 26.8605345,39.9224805 27.8343343,39.7735352 L27.8343343,26.7475586 L32.2914104,26.7475586 Z" id="Path" fill="#FFFFFF"></path>
            </g>
        </g>
    </g>
</svg>