<?xml version="1.0" encoding="UTF-8"?>
<svg width="50px" height="50px" viewBox="0 0 50 50" version="1.1" xmlns="http://www.w3.org/2000/svg" xmlns:xlink="http://www.w3.org/1999/xlink">
    <!-- Generator: Sketch 63.1 (92452) - https://sketch.com -->
    <title>Instagram</title>
    <desc>Created with Sketch.</desc>
    <g id="Welcome" stroke="none" stroke-width="1" fill="none" fill-rule="evenodd">
        <g id="sandbox" transform="translate(-474.000000, -756.000000)" fill-rule="nonzero">
            <g id="Instagram" transform="translate(474.000000, 756.000000)">
                <rect id="back-12" fill="#333333" x="0" y="0" width="50" height="50"></rect>
                <path d="M25,13.5294118 C28.7352941,13.5294118 29.1823529,13.5294118 30.6588235,13.6117647 C31.5470065,13.6195013 32.4269698,13.7827524 33.2588235,14.0941176 C34.4762732,14.5669143 35.4389681,15.5296091 35.9117647,16.7470588 C36.2231299,17.5789125 36.386381,18.4588759 36.3941176,19.3470588 C36.4647059,20.8235294 36.4764706,21.2705882 36.4764706,25.0058824 C36.4764706,28.7411765 36.4764706,29.1882353 36.3941176,30.6647059 C36.386381,31.5528889 36.2231299,32.4328522 35.9117647,33.2647059 C35.4389681,34.4821556 34.4762732,35.4448504 33.2588235,35.9176471 C32.4269698,36.2290123 31.5470065,36.3922634 30.6588235,36.4 C29.1823529,36.4705882 28.7411765,36.4823529 25,36.4823529 C21.2588235,36.4823529 20.8176471,36.4823529 19.3411765,36.4 C18.4529935,36.3922634 17.5730302,36.2290123 16.7411765,35.9176471 C15.5237268,35.4448504 14.5610319,34.4821556 14.0882353,33.2647059 C13.7768701,32.4328522 13.613619,31.5528889 13.6058824,30.6647059 C13.5352941,29.1882353 13.5235294,28.7411765 13.5235294,25.0058824 C13.5235294,21.2705882 13.5235294,20.8235294 13.6058824,19.3470588 C13.613619,18.4588759 13.7768701,17.5789125 14.0882353,16.7470588 C14.5610319,15.5296091 15.5237268,14.5669143 16.7411765,14.0941176 C17.5730302,13.7827524 18.4529935,13.6195013 19.3411765,13.6117647 C20.8176471,13.5411765 21.2647059,13.5294118 25,13.5294118 M25,11.0058824 C21.2,11.0058824 20.7235294,11.0058824 19.2294118,11.0882353 C18.0673318,11.1122598 16.9177248,11.3330321 15.8294118,11.7411765 C13.932501,12.4637755 12.4343637,13.9619128 11.7117647,15.8588235 C11.3036203,16.9471365 11.082848,18.0967436 11.0588235,19.2588235 C10.9941176,20.7529412 10.9764706,21.2294118 10.9764706,25.0294118 C10.9764706,28.8294118 10.9764706,29.3058824 11.0588235,30.8 C11.082848,31.96208 11.3036203,33.111687 11.7117647,34.2 C12.4343637,36.0969108 13.932501,37.595048 15.8294118,38.3176471 C16.9177248,38.7257915 18.0673318,38.9465638 19.2294118,38.9705882 C20.7235294,39.0352941 21.2,39.0529412 25,39.0529412 C28.8,39.0529412 29.2764706,39.0529412 30.7705882,38.9705882 C31.9326682,38.9465638 33.0822752,38.7257915 34.1705882,38.3176471 C36.067499,37.595048 37.5656363,36.0969108 38.2882353,34.2 C38.6963797,33.111687 38.917152,31.96208 38.9411765,30.8 C39.0058824,29.3058824 39.0235294,28.8294118 39.0235294,25.0294118 C39.0235294,21.2294118 39.0235294,20.7529412 38.9411765,19.2588235 C38.917152,18.0967436 38.6963797,16.9471365 38.2882353,15.8588235 C37.5656363,13.9619128 36.067499,12.4637755 34.1705882,11.7411765 C33.0822752,11.3330321 31.9326682,11.1122598 30.7705882,11.0882353 C29.2764706,11.0235294 28.8,11.0058824 25,11.0058824 L25,11.0058824 Z" id="Shape" fill="#FFFFFF"></path>
                <path d="M25,17.8117647 C21.0300473,17.8117647 17.8117647,21.0300473 17.8117647,25 C17.8117647,28.9699527 21.0300473,32.1882353 25,32.1882353 C28.9699527,32.1882353 32.1882353,28.9699527 32.1882353,25 C32.1882353,21.0300473 28.9699527,17.8117647 25,17.8117647 Z M25,29.6647059 C22.4237541,29.6647059 20.3352941,27.5762459 20.3352941,25 C20.3352941,22.4237541 22.4237541,20.3352941 25,20.3352941 C27.5762459,20.3352941 29.6647059,22.4237541 29.6647059,25 C29.6647059,27.5762459 27.5762459,29.6647059 25,29.6647059 Z" id="Shape" fill="#FFFFFF"></path>
                <circle id="Oval" fill="#FFFFFF" cx="32.4705882" cy="17.5294118" r="1.68235294"></circle>
            </g>
        </g>
    </g>
</svg>