<?xml version="1.0" encoding="UTF-8"?>
<svg width="50px" height="50px" viewBox="0 0 50 50" version="1.1" xmlns="http://www.w3.org/2000/svg" xmlns:xlink="http://www.w3.org/1999/xlink">
    <!-- Generator: Sketch 63.1 (92452) - https://sketch.com -->
    <title>Facebook-hover</title>
    <desc>Created with Sketch.</desc>
    <g id="Welcome" stroke="none" stroke-width="1" fill="none" fill-rule="evenodd">
        <g id="sandbox" transform="translate(-359.000000, -867.000000)" fill-rule="nonzero">
            <g id="Facebook-hover" transform="translate(359.000000, 867.000000)">
                <rect id="back-15" fill="#4D4D4D" x="0" y="0" width="50" height="50"></rect>
                <path d="M37.4529412,11 L12.5470588,11 C11.6926418,11 11,11.6926418 11,12.5470588 L11,37.4529412 C11,38.3073582 11.6926418,39 12.5470588,39 L25.9529412,39 L25.9529412,28.1588235 L22.3058824,28.1588235 L22.3058824,23.9294118 L25.9529412,23.9294118 L25.9529412,20.8176471 C25.9529412,17.2 28.1647059,15.2294118 31.3882353,15.2294118 C32.4785901,15.2276784 33.5682972,15.2826546 34.6529412,15.3941176 L34.6529412,19.1764706 L32.4117647,19.1764706 C30.6470588,19.1764706 30.3176471,20.0117647 30.3176471,21.2352941 L30.3176471,23.9294118 L34.5058824,23.9294118 L33.9588235,28.1588235 L30.3176471,28.1588235 L30.3176471,39 L37.4529412,39 C38.3073582,39 39,38.3073582 39,37.4529412 L39,12.5470588 C39,12.1367533 38.8370068,11.7432528 38.546877,11.453123 C38.2567472,11.1629932 37.8632467,11 37.4529412,11 Z" id="Facebook-2" fill="#FFFFFF"></path>
            </g>
        </g>
    </g>
</svg>